<svg xmlns="http://www.w3.org/2000/svg" xmlns:xlink="http://www.w3.org/1999/xlink" version="1.1" x="0px" y="0px" viewBox="0 0 20 25" style="enable-background:new 0 0 20 20;" xml:space="preserve"><style type="text/css">
	.st0{fill:#FFFFFF;}
</style><g><path d="M18.1,13.9c0.6-1.2,0.9-2.5,0.9-3.8c0-1.4-0.3-2.7-0.9-3.9l1-1c1.2-1.2,1.2-3.1,0-4.3c-1.2-1.2-3.1-1.2-4.3,0l-1,1   C12.7,1.3,11.4,1,10,1C8.6,1,7.3,1.3,6.1,1.9l-1-1C4-0.3,2.1-0.3,0.9,0.9c-1.2,1.2-1.2,3.1,0,4.3l1,1C1.3,7.3,1,8.6,1,10   c0,1.4,0.3,2.7,0.9,3.9l-1,1c-1.2,1.2-1.2,3.1,0,4.3c1.2,1.2,3.1,1.2,4.3,0l1-1C7.3,18.7,8.6,19,10,19c1.4,0,2.7-0.3,3.9-0.9l1,1   c1.2,1.2,3.1,1.2,4.3,0c1.2-1.2,1.2-3.1,0-4.3L18.1,13.9z M10,16c-3.3,0-6-2.7-6-6c0-3.3,2.7-6,6-6s6,2.7,6,6   C16,13.3,13.3,16,10,16z"/><circle cx="10" cy="10" r="2"/></g><text x="0" y="35" fill="#000000" font-size="5px" font-weight="bold" font-family="'Helvetica Neue', Helvetica, Arial-Unicode, Arial, Sans-serif">Created by ProSymbols</text><text x="0" y="40" fill="#000000" font-size="5px" font-weight="bold" font-family="'Helvetica Neue', Helvetica, Arial-Unicode, Arial, Sans-serif">from the Noun Project</text></svg>